name 900045_2.mot																																																																																																																																												
datacolumns 141																																																																																																																																												
datarows 4																																																																																																																																												
range 1.47500002 1.5																																																																																																																																												
endheader																																																																																																																																												

                time	           pelvis_tx	           pelvis_ty	           pelvis_tz	         pelvis_tilt	         pelvis_list	     pelvis_rotation	       hip_flexion_r	     hip_adduction_r	      hip_rotation_r	        knee_angle_r	       ankle_angle_r	    subtalar_angle_r	         mtp_angle_r	       hip_flexion_l	     hip_adduction_l	      hip_rotation_l	        knee_angle_l	       ankle_angle_l	    subtalar_angle_l	         mtp_angle_l	    lumbar_extension	      lumbar_bending	     lumbar_rotation	    ground_marker_px	    ground_marker_py	    ground_marker_pz	    ground_marker_px	    ground_marker_py	    ground_marker_pz	    ground_marker_px	    ground_marker_py	    ground_marker_pz	    ground_marker_px	    ground_marker_py	    ground_marker_pz	    ground_marker_px	    ground_marker_py	    ground_marker_pz	    ground_marker_px	    ground_marker_py	    ground_marker_pz	    ground_marker_px	    ground_marker_py	    ground_marker_pz	    ground_marker_px	    ground_marker_py	    ground_marker_pz	    ground_marker_px	    ground_marker_py	    ground_marker_pz	    ground_marker_px	    ground_marker_py	    ground_marker_pz	    ground_marker_px	    ground_marker_py	    ground_marker_pz	    ground_marker_px	    ground_marker_py	    ground_marker_pz	    ground_marker_px	    ground_marker_py	    ground_marker_pz	    ground_marker_px	    ground_marker_py	    ground_marker_pz	    ground_marker_px	    ground_marker_py	    ground_marker_pz	    ground_marker_px	    ground_marker_py	    ground_marker_pz	    ground_marker_px	    ground_marker_py	    ground_marker_pz	    ground_marker_px	    ground_marker_py	    ground_marker_pz	    ground_marker_px	    ground_marker_py	    ground_marker_pz	    ground_marker_px	    ground_marker_py	    ground_marker_pz	    ground_marker_px	    ground_marker_py	    ground_marker_pz	    ground_marker_px	    ground_marker_py	    ground_marker_pz	    ground_marker_px	    ground_marker_py	    ground_marker_pz	    ground_marker_px	    ground_marker_py	    ground_marker_pz	    ground_marker_px	    ground_marker_py	    ground_marker_pz	    ground_marker_px	    ground_marker_py	    ground_marker_pz	    ground_marker_px	    ground_marker_py	    ground_marker_pz	    ground_marker_px	    ground_marker_py	    ground_marker_pz	    ground_marker_px	    ground_marker_py	    ground_marker_pz	    ground_marker_px	    ground_marker_py	    ground_marker_pz	    ground_marker_px	    ground_marker_py	    ground_marker_pz	    ground_marker_px	    ground_marker_py	    ground_marker_pz	    ground_marker_px	    ground_marker_py	    ground_marker_pz	    ground_marker_px	    ground_marker_py	    ground_marker_pz	    ground_marker_px	    ground_marker_py	    ground_marker_pz	    ground_marker_px	    ground_marker_py	    ground_marker_pz	    ground_marker_px	    ground_marker_py	    ground_marker_pz	    ground_marker_px	    ground_marker_py	    ground_marker_pz	    ground_marker_px	    ground_marker_py	    ground_marker_pz
1.47500002	1.56556153	0.9602828	-0.24685213	-5.17089462	2.18266225	-2.12186456	2.08773136	-7.86930847	10.97733879	-1.0771451	5.08870268	0	0	-0.59861088	-1.92825186	5.11054611	-1.37155318	6.88833475	0	0	2.02604055	2.46033859	-5.01212883	1.47177219	0.88167584	-0.25323188	1.46826649	0.87976301	-0.17812333	1.47527802	0.88358873	-0.32834044	1.4436202	0.47022235	-0.13311389	1.43315589	0.46065143	-0.35542873	1.40609348	0.06944275	-0.12843911	1.38276875	0.07113028	-0.36505774	1.56556153	0.9602828	-0.24685213	1.55999792	0.95724714	-0.12765603	1.57112527	0.96331853	-0.36604825	1.38072097	1.01758718	-0.22137722	1.38962436	1.01582932	-0.30672911	1.45250332	0.47601059	-0.07558271	1.44117713	0.46352699	-0.41279936	1.42791224	0.47771382	-0.1865472	1.42892969	0.46487778	-0.30284646	1.39135349	0.07125613	-0.09129822	1.36503065	0.07427989	-0.39964727	1.4160521	0.08383792	-0.15796719	1.39115119	0.08374537	-0.33714223	1.34281766	0.04254677	-0.14396033	1.31750381	0.04286403	-0.35209456	1.48630953	1.37004888	-0.23572442	1.56882095	1.20656466	-0.24682842	1.37290823	1.43619311	-0.24006546	1.49524581	1.35855174	-0.18340433	1.50993514	1.36545551	-0.29050717	1.52574551	0.0395914	-0.09949538	1.50056291	0.04111611	-0.4017916	1.50633276	0.59147513	-0.00969808	1.59630466	0.5529741	-0.34162623	1.5222559	0.65141213	-0.08317994	1.53570008	0.61843038	-0.38175881	1.51380348	0.56396073	-0.0989098	1.51033926	0.53616232	-0.38613826	1.41820884	0.2050769	-0.00591346	1.40642476	0.21177214	-0.47971836	1.40603244	0.17193353	-0.07871963	1.38582945	0.17385171	-0.41080275
1.48333335	1.56550884	0.96023518	-0.24683374	-5.17844009	2.20035172	-2.11434102	2.10641861	-7.88009834	10.95782185	-1.08846176	5.08213425	0	0	-0.56775665	-1.91327381	5.09358978	-1.40436327	6.90102291	0	0	2.05599236	2.33830094	-4.95711565	1.47170925	0.88164222	-0.2532365	1.46820581	0.87970471	-0.17812847	1.47521281	0.88357979	-0.32834455	1.44364262	0.47020683	-0.1331775	1.43325806	0.46062374	-0.35545167	1.40614045	0.06938366	-0.12843029	1.38280702	0.07114732	-0.36506653	1.56550884	0.96023518	-0.24683374	1.55995011	0.95716101	-0.12766333	1.57106757	0.96330935	-0.36600414	1.38063693	1.0175935	-0.22149391	1.38961065	1.01579583	-0.30675516	1.45250678	0.47599071	-0.075643	1.44125855	0.46350718	-0.41282484	1.42781079	0.47790301	-0.18673995	1.42857623	0.46505007	-0.30282411	1.39138937	0.07120363	-0.09129418	1.36505616	0.07430043	-0.39964923	1.415905	0.08393001	-0.15800977	1.39129305	0.08363181	-0.33714962	1.34281576	0.04256853	-0.14396036	1.31751847	0.04286105	-0.35211906	1.48629916	1.36997795	-0.23575665	1.56885862	1.20650446	-0.24666023	1.37288022	1.43609202	-0.24027309	1.4952873	1.35857272	-0.18335968	1.50987637	1.36530042	-0.29062298	1.52570665	0.0396512	-0.09948152	1.50059164	0.04107332	-0.401752	1.50635219	0.59145087	-0.00970054	1.59611952	0.5529272	-0.34144992	1.52225995	0.65141642	-0.0831576	1.53570652	0.6183728	-0.38177866	1.51377082	0.56399012	-0.09901372	1.51022303	0.53605944	-0.38607898	1.41822457	0.20507696	-0.00593816	1.40645003	0.21175568	-0.47971997	1.40618968	0.17189842	-0.07864427	1.38589275	0.1738212	-0.4107542
1.49166667	1.565467	0.96023166	-0.24685133	-5.17359543	2.20530295	-2.11882567	2.11106205	-7.87894154	10.94408226	-1.09741521	5.07561207	0	0	-0.54991055	-1.90899456	5.05010462	-1.44035399	6.91578531	0	0	2.11628914	2.3280983	-4.93297243	1.47167468	0.88163149	-0.25326818	1.46816385	0.87968922	-0.17816061	1.47518551	0.88357371	-0.32837576	1.44366312	0.4701896	-0.13324389	1.43339944	0.4606128	-0.35547394	1.40618563	0.06934015	-0.12842628	1.38286805	0.07115792	-0.36507902	1.565467	0.96023166	-0.24685133	1.55989814	0.95715088	-0.12771755	1.57103586	0.96331245	-0.3659851	1.38050687	1.01763022	-0.22164935	1.38953197	1.01576769	-0.30681139	1.45250666	0.47597161	-0.07570599	1.44136119	0.46350232	-0.41285217	1.42752528	0.47816178	-0.18687016	1.42839599	0.46524382	-0.3028245	1.39142191	0.07116675	-0.09129553	1.36509407	0.07431668	-0.39964935	1.41581011	0.08392015	-0.15806864	1.39143395	0.08346528	-0.33712122	1.34281087	0.04258488	-0.14396918	1.31754446	0.04287885	-0.35215613	1.48622334	1.369995	-0.2358222	1.56896782	1.20661521	-0.24672642	1.37271798	1.43600976	-0.24050878	1.49523997	1.35860777	-0.18342365	1.50978971	1.36533666	-0.29069754	1.52564955	0.03967775	-0.09945865	1.50061655	0.04103417	-0.40172523	1.50637603	0.59141988	-0.00971818	1.59596169	0.55288672	-0.34129429	1.52226412	0.65142071	-0.08313526	1.53578544	0.61830115	-0.381825	1.51366854	0.56403565	-0.09910896	1.51029098	0.53609723	-0.38602439	1.41822886	0.20507362	-0.00595926	1.40646541	0.21172939	-0.47970733	1.40614545	0.17184794	-0.07874673	1.38586485	0.17383854	-0.41075304
1.5	1.56543279	0.96026641	-0.24688882	-5.16059303	2.19909883	-2.13738489	2.10828304	-7.86444283	10.9354744	-1.10487103	5.06695461	0	0	-0.54258728	-1.915308	4.98280096	-1.47751653	6.93178368	0	0	2.14756799	2.40662074	-4.96874809	1.47165895	0.88164485	-0.25331602	1.46812773	0.87971675	-0.17820905	1.47519016	0.88357288	-0.32842299	1.44368458	0.47017586	-0.13331844	1.43356085	0.46061611	-0.35549161	1.40624607	0.06930639	-0.1284149	1.38293529	0.07116936	-0.36509866	1.56543279	0.96026641	-0.24688882	1.55983353	0.95720923	-0.12779759	1.57103193	0.96332359	-0.36598003	1.38033199	1.01769876	-0.22182649	1.38939965	1.01575649	-0.30690801	1.45250177	0.47595692	-0.0757764	1.44147122	0.46351013	-0.4128767	1.42730832	0.47816592	-0.18680243	1.42827857	0.4654173	-0.30284169	1.39146614	0.07114084	-0.09129094	1.36513102	0.07433622	-0.39965263	1.41587007	0.08372478	-0.15814565	1.39143562	0.0833838	-0.33710524	1.34280121	0.04258254	-0.14397246	1.31757319	0.04290596	-0.35219523	1.48608088	1.37010264	-0.23602469	1.56896329	1.20679951	-0.24703014	1.37259197	1.43597472	-0.24057978	1.49505639	1.35866451	-0.18363899	1.50970328	1.36552334	-0.29087317	1.52559674	0.03967062	-0.09944629	1.50062633	0.0410062	-0.40171146	1.50640011	0.5913946	-0.00975259	1.59587681	0.55287588	-0.34119499	1.52221048	0.65143645	-0.08317442	1.53586483	0.61825913	-0.38185832	1.51357329	0.56398982	-0.09915195	1.51036263	0.53618133	-0.38599515	1.41822779	0.20507121	-0.00597251	1.40647542	0.21170264	-0.47968873	1.40611279	0.17184283	-0.07888968	1.38595426	0.17386381	-0.4107888
